<svg id="Layer_1" data-name="Layer 1" xmlns="http://www.w3.org/2000/svg" viewBox="0 0 1366 1366"><defs><style>.cls-1{fill:#ce9b16;}</style></defs><title>logo</title><path class="cls-1" d="M683,0C305.79,0,0,305.79,0,683s305.79,683,683,683,683-305.79,683-683S1060.21,0,683,0ZM952.35,1034.66q-82.22,77.77-207.39,77.75-116.34,0-210.55-69v58H336.5v-282H534.41q35.39,115,133.42,115,70.8,0,70.81-57,0-29.77-24.66-49.39-26.58-21.52-111.92-59.52Q494.56,719.77,444,684.3,396.55,652,363.06,595q-33.52-56.34-33.52-124.73,0-122.84,79.67-191.86,79-69,194.75-69t196,66v-54H999.14v250H802.5q-36-103-127.72-103-64.5,0-64.5,55,0,26.55,18.34,39.81,17.7,13.92,114.44,61.31Q872.67,589,916.31,618.72q22.13,14.55,45.2,40.78a300.13,300.13,0,0,1,38.25,54q34.78,61.95,34.78,134Q1034.55,958.18,952.35,1034.66Z"/></svg>
